<svg viewBox="0 0 100 100" fill="none" xmlns="http://www.w3.org/2000/svg">
  <circle cx="50" cy="52" r="32" fill="#fff5f0"/>
  <circle cx="32" cy="42" r="12" fill="#fff5f0"/>
  <circle cx="68" cy="42" r="12" fill="#fff5f0"/>
  <circle cx="28" cy="55" r="10" fill="#fff5f0"/>
  <circle cx="72" cy="55" r="10" fill="#fff5f0"/>
  <circle cx="40" cy="28" r="10" fill="#fff5f0"/>
  <circle cx="60" cy="28" r="10" fill="#fff5f0"/>
  <ellipse cx="50" cy="55" rx="18" ry="20" fill="#fff8f5"/>
  <ellipse cx="43" cy="52" rx="4" ry="5" fill="#8b3850"/>
  <circle cx="44.5" cy="50.5" r="2" fill="white"/>
  <ellipse cx="57" cy="52" rx="4" ry="5" fill="#8b3850"/>
  <circle cx="58.5" cy="50.5" r="2" fill="white"/>
  <ellipse cx="35" cy="59" rx="5" ry="3" fill="#e8b8a0" opacity="0.6"/>
  <ellipse cx="65" cy="59" rx="5" ry="3" fill="#e8b8a0" opacity="0.6"/>
  <ellipse cx="50" cy="61" rx="3.5" ry="2.5" fill="#d4a090"/>
  <path d="M44 64 Q50 70 56 64" stroke="#d4a090" stroke-width="2" fill="#ffb0b0" stroke-linecap="round"/>
  <path d="M34 36 Q22 28 28 16" stroke="#e8c0a8" stroke-width="5" fill="none" stroke-linecap="round"/>
  <path d="M66 36 Q78 28 72 16" stroke="#e8c0a8" stroke-width="5" fill="none" stroke-linecap="round"/>
</svg>